<svg width="31" height="26" viewBox="0 0 31 26" fill="none" xmlns="http://www.w3.org/2000/svg">
<path d="M25.5869 18.8792H10.4533C8.91789 18.8792 7.63635 17.8005 7.40567 16.314L5.50169 4.0441C5.47243 3.85442 5.52893 3.66145 5.65671 3.5159C5.78449 3.37035 5.97079 3.28671 6.16684 3.28671H28.9974C29.6044 3.28671 30.1714 3.5518 30.5537 4.0138C30.9354 4.4758 31.082 5.07414 30.9555 5.65534L28.602 16.4889C28.3013 17.8739 27.0329 18.8792 25.5869 18.8792ZM6.94934 4.6039L8.73596 16.1161C8.86576 16.9538 9.58808 17.5621 10.4533 17.5621H25.5869C26.4021 17.5621 27.1167 16.9953 27.2865 16.2149L29.64 5.38104C29.6814 5.19005 29.6333 4.99379 29.5079 4.84231C29.3825 4.69083 29.1965 4.60357 28.9971 4.60357L6.94934 4.6039Z" fill="white"/>
<path d="M6.16616 4.6039C5.83393 4.6039 5.54473 4.36285 5.50034 4.03158L5.29925 2.53954C5.20543 1.84275 4.59341 1.31719 3.87581 1.31719H1.4079C1.03665 1.31719 0.735352 1.02214 0.735352 0.658594C0.735352 0.29505 1.03665 0 1.4079 0H3.87581C5.26562 0 6.45099 1.01753 6.63291 2.36699L6.834 3.85903C6.88276 4.21961 6.6235 4.55055 6.25528 4.5983C6.22501 4.60192 6.19542 4.6039 6.16616 4.6039Z" fill="white"/>
<path d="M10.5478 25.7866C8.94714 25.7866 7.64509 24.5112 7.64509 22.9438C7.64509 21.3763 8.94748 20.1013 10.5478 20.1013C12.1485 20.1013 13.4508 21.3763 13.4508 22.9438C13.4508 24.5112 12.1485 25.7866 10.5478 25.7866ZM10.5478 21.4188C9.68896 21.4188 8.99019 22.1031 8.99019 22.9441C8.99019 23.7854 9.68896 24.4697 10.5478 24.4697C11.407 24.4697 12.1058 23.7854 12.1058 22.9441C12.1058 22.1031 11.4066 21.4188 10.5478 21.4188Z" fill="white"/>
<path d="M24.7247 25.7866C23.1241 25.7866 21.8217 24.5112 21.8217 22.9438C21.8217 21.3763 23.1241 20.1013 24.7247 20.1013C26.3254 20.1013 27.6275 21.3763 27.6275 22.9438C27.6275 24.5112 26.3254 25.7866 24.7247 25.7866ZM24.7247 21.4188C23.8656 21.4188 23.1668 22.1031 23.1668 22.9441C23.1668 23.7854 23.8656 24.4697 24.7247 24.4697C25.5836 24.4697 26.2824 23.7854 26.2824 22.9441C26.2824 22.1031 25.5836 21.4188 24.7247 21.4188Z" fill="white"/>
</svg>
