<svg width="14" height="14" viewBox="0 0 14 14" fill="none" xmlns="http://www.w3.org/2000/svg">
<path fill-rule="evenodd" clip-rule="evenodd" d="M7.5318 13.8026L12.3376 9.25652C13.4095 8.24152 14 6.95072 14 5.6224C14.0004 4.12048 13.2721 2.70872 11.9499 1.64668C10.6277 0.584921 8.87006 0 7.00018 0C3.14052 0 0.000350952 2.52224 0 5.62268C0 6.95072 0.59053 8.24124 1.66316 9.2568L6.46892 13.8026C6.60104 13.9278 6.79555 14 7.00018 14C7.2048 14 7.39967 13.9278 7.5318 13.8026ZM5.10521 5.44824C5.10521 4.6088 5.95509 3.92616 7.00018 3.92616C8.04492 3.92616 8.89481 4.6088 8.89481 5.44824C8.89481 6.28768 8.04492 6.97032 7.00018 6.97032C5.95509 6.97032 5.10521 6.28768 5.10521 5.44824ZM7.00018 1.12C3.90918 1.12 1.39439 3.13992 1.39439 5.62268C1.39439 6.68556 1.8671 7.71904 2.72603 8.53188L7.00018 12.5748L11.274 8.5316C12.1326 7.71904 12.6053 6.68584 12.6053 5.6224C12.6053 4.4198 12.0224 3.28916 10.9637 2.4388C9.90504 1.58844 8.49776 1.12 7.00018 1.12ZM7.00018 8.09032C5.18643 8.09032 3.71082 6.90508 3.71082 5.44824C3.71082 3.9914 5.18643 2.80616 7.00018 2.80616C8.81393 2.80616 10.2892 3.9914 10.2892 5.44824C10.2892 6.90508 8.81393 8.09032 7.00018 8.09032Z" fill="#D9D9D9"/>
</svg>
