<svg width="14" height="14" viewBox="0 0 14 14" fill="none" xmlns="http://www.w3.org/2000/svg">
<path d="M11.8735 12.2232H2.11075C0.989408 12.2232 0.0769043 11.3109 0.0769043 10.1894V3.79523C0.0769043 2.67373 0.989408 1.76123 2.11075 1.76123H11.8734C12.995 1.76123 13.9074 2.67373 13.9074 3.79523V10.1894C13.9074 11.3109 12.995 12.2232 11.8735 12.2232ZM2.11075 2.99061C1.66725 2.99061 1.30628 3.35158 1.30628 3.79523V10.1894C1.30628 10.633 1.66725 10.9938 2.11075 10.9938H11.8734C12.317 10.9938 12.6778 10.6329 12.6778 10.1894V3.79523C12.6778 3.35158 12.3169 2.99076 11.8734 2.99076H2.11075V2.99061Z" fill="white"/>
<path d="M6.99219 9.06347C6.39794 9.06347 5.82751 8.8116 5.42719 8.37241L2.11864 4.74222C1.88997 4.49127 1.90795 4.10248 2.1589 3.87382C2.40969 3.64515 2.79864 3.66298 3.0273 3.91408L6.33601 7.54442C6.50628 7.73129 6.7394 7.83425 6.99234 7.83425C7.24529 7.83425 7.47825 7.73129 7.64867 7.54442L10.9572 3.91408C11.1859 3.66298 11.5747 3.64515 11.8255 3.87382C12.0764 4.10248 12.0944 4.49127 11.8657 4.74222L8.55703 8.37241C8.15671 8.8116 7.58644 9.06347 6.99219 9.06347Z" fill="white"/>
</svg>
