<svg width="23" height="26" viewBox="0 0 23 26" fill="none" xmlns="http://www.w3.org/2000/svg">
<path fill-rule="evenodd" clip-rule="evenodd" d="M3.7052 6.80514C3.7052 10.5575 7.06253 13.61 11.1891 13.61C15.3156 13.61 18.6729 10.5575 18.6729 6.80514C18.6729 3.05282 15.3156 0 11.1891 0C7.06253 0 3.7052 3.05282 3.7052 6.80514ZM5.58835 6.80514C5.58835 3.9969 8.10074 1.71234 11.1891 1.71234C14.2774 1.71234 16.7898 3.9969 16.7898 6.80514C16.7898 9.61338 14.2774 11.8979 11.1891 11.8979C8.10074 11.8979 5.58835 9.61338 5.58835 6.80514ZM20.1955 24.829C20.1955 25.3019 20.617 25.6852 21.137 25.6852C21.6574 25.6852 22.0786 25.3019 22.0786 24.829V21.579C22.0786 18.0806 18.9485 15.2342 15.101 15.2342H7.2775C3.42996 15.2342 0.299561 18.0804 0.299561 21.579V24.829C0.299561 25.3019 0.721069 25.6852 1.24115 25.6852C1.7612 25.6852 2.18271 25.3019 2.18271 24.829V21.579C2.18271 19.0247 4.4682 16.9465 7.2775 16.9465H15.101C17.91 16.9465 20.1955 19.0247 20.1955 21.579V24.829Z" fill="white"/>
</svg>
