<svg width="19" height="20" viewBox="0 0 19 20" fill="none" xmlns="http://www.w3.org/2000/svg">
<path fill-rule="evenodd" clip-rule="evenodd" d="M13.0398 14.8523C10.1354 18.2496 5.42657 18.2496 2.52224 14.8523C-0.382088 11.455 -0.382089 5.94679 2.52224 2.54946C5.42657 -0.847867 10.1354 -0.847867 13.0398 2.54946C15.7221 5.68709 15.9271 10.6252 13.6549 14.0381L18.0175 19.1412L17.362 19.908L13.0398 14.8523C13.0398 14.8523 13.0397 14.8523 13.0398 14.8523ZM12.3842 14.0855C9.84194 17.0594 5.72005 17.0594 3.17775 14.0855C0.635449 11.1117 0.635449 6.29009 3.17775 3.31624C5.72005 0.342393 9.84194 0.342393 12.3842 3.31624C14.9265 6.29009 14.9265 11.1117 12.3842 14.0855Z" fill="black"/>
</svg>
